<svg xmlns="http://www.w3.org/2000/svg" viewBox="0 0 1925.76 1080.36"><defs><style>.cls-1,.cls-4{fill:#d397f8;}.cls-2{fill:#b95cf4;}.cls-3{fill:#f9e6df;}.cls-3,.cls-4{stroke:#000;stroke-miterlimit:10;stroke-width:10px;}</style></defs><g id="Layer_2" data-name="Layer 2"><g id="Layer_1-2" data-name="Layer 1"><rect class="cls-1" x="3.49" y="0.5" width="1919" height="1079.36"/><path d="M1922,1V1079.36H4V1H1922m1-1H3V1080.36H1923V0Z"/><path class="cls-2" d="M5.05,313.41c96.23-2.17,262.81,11.28,426.71,125.43,289.72,201.78,403.44,601.44,360.87,638.7-30.25,26.48-125-142.66-356.09-242.42-159.78-69-295-67.37-336.35-66.17a748.8,748.8,0,0,0-97.27,9.21"/><line class="cls-3" x1="154.98" y1="166.08" x2="3.5" y2="88.66"/><line class="cls-3" x1="154.17" y1="141.3" x2="3.34" y2="62.6"/><polyline class="cls-4" points="1755.49 494.67 1822.49 530.68 1922.99 472.9"/><polyline class="cls-4" points="1755.77 470.5 1822.77 506.51 1923.27 448.74"/><polyline class="cls-4" points="1755.77 441.49 1822.77 477.5 1923.27 419.73"/><line class="cls-3" x1="155.61" y1="222.89" x2="2.16" y2="149.45"/><line class="cls-3" x1="154.62" y1="195.87" x2="3.14" y2="118.45"/><rect class="cls-1" x="613.99" y="1006" width="349" height="74"/></g></g></svg>