<?xml version="1.0" encoding="UTF-8" standalone="no"?><svg xmlns:svg="http://www.w3.org/2000/svg" xmlns="http://www.w3.org/2000/svg" xmlns:xlink="http://www.w3.org/1999/xlink" version="1.0" width="110px" height="110px" viewBox="0 0 128 128" xml:space="preserve"><g><path d="M59.6 0h8v40h-8V0z" fill="#4e4949"/><path d="M59.6 0h8v40h-8V0z" fill="#dcdbdb" transform="rotate(30 64 64)"/><path d="M59.6 0h8v40h-8V0z" fill="#dcdbdb" transform="rotate(60 64 64)"/><path d="M59.6 0h8v40h-8V0z" fill="#dcdbdb" transform="rotate(90 64 64)"/><path d="M59.6 0h8v40h-8V0z" fill="#dcdbdb" transform="rotate(120 64 64)"/><path d="M59.6 0h8v40h-8V0z" fill="#cac8c8" transform="rotate(150 64 64)"/><path d="M59.6 0h8v40h-8V0z" fill="#b8b6b6" transform="rotate(180 64 64)"/><path d="M59.6 0h8v40h-8V0z" fill="#a6a4a4" transform="rotate(210 64 64)"/><path d="M59.6 0h8v40h-8V0z" fill="#959292" transform="rotate(240 64 64)"/><path d="M59.6 0h8v40h-8V0z" fill="#837f7f" transform="rotate(270 64 64)"/><path d="M59.6 0h8v40h-8V0z" fill="#716d6d" transform="rotate(300 64 64)"/><path d="M59.6 0h8v40h-8V0z" fill="#5f5b5b" transform="rotate(330 64 64)"/><animateTransform attributeName="transform" type="rotate" values="0 64 64;30 64 64;60 64 64;90 64 64;120 64 64;150 64 64;180 64 64;210 64 64;240 64 64;270 64 64;300 64 64;330 64 64" calcMode="discrete" dur="1080ms" repeatCount="indefinite"></animateTransform></g></svg>